<svg width="1440" height="520" viewBox="0 0 1440 520" fill="none" preserveAspectRatio="xMidYMax slice" xmlns="http://www.w3.org/2000/svg" aria-hidden="true">
  
  <rect width="1440" height="520" fill="#2A0A18"></rect>
  <radialGradient id="anuGlow" cx="50%" cy="92%" r="62%">
    <stop offset="0%" stop-color="#E8941F" stop-opacity="0.42"></stop>
    <stop offset="42%" stop-color="#C8243E" stop-opacity="0.20"></stop>
    <stop offset="100%" stop-color="#2A0A18" stop-opacity="0"></stop>
  </radialGradient>
  <rect width="1440" height="520" fill="url(#anuGlow)"></rect>
  
  <g fill="#F7C879" opacity="0.85">
    <circle cx="180" cy="90" r="1.6"></circle><circle cx="320" cy="150" r="1.2"></circle><circle cx="520" cy="70" r="1.8"></circle>
    <circle cx="700" cy="120" r="1.3"></circle><circle cx="900" cy="80" r="1.6"></circle><circle cx="1080" cy="140" r="1.2"></circle>
    <circle cx="1260" cy="90" r="1.7"></circle><circle cx="1180" cy="220" r="1.3"></circle><circle cx="420" cy="220" r="1.2"></circle>
  </g>
  <g stroke="#F7C879" stroke-width="0.6" opacity="0.28">
    <path d="M180 90 L320 150 L520 70 L700 120"></path>
    <path d="M900 80 L1080 140 L1260 90"></path>
  </g>
  
  <path d="M0 520 L0 360 L220 230 L420 350 L600 220 L820 360 L1000 250 L1230 380 L1440 280 L1440 520 Z" fill="#4E1830"></path>
  <path d="M0 520 L0 420 L260 300 L500 420 L720 300 L980 430 L1200 320 L1440 410 L1440 520 Z" fill="#3A0F22"></path>
  <path d="M600 220 L636 290 L612 282 L600 308 L588 282 L564 290 Z" fill="#F4F1EA" opacity="0.92"></path>
</svg>