<svg width="1440" height="220" viewBox="0 0 1440 220" fill="none" preserveAspectRatio="none" xmlns="http://www.w3.org/2000/svg" aria-hidden="true">
  
  <path d="M0 220 L0 150 L120 96 L250 138 L360 70 L470 130 L600 62 L720 118 L840 58 L980 120 L1100 74 L1230 132 L1340 90 L1440 130 L1440 220 Z" fill="#E5677A" opacity="0.5"></path>
  <path d="M0 220 L0 178 L140 120 L280 170 L400 104 L540 168 L680 96 L820 162 L960 102 L1110 170 L1250 118 L1360 162 L1440 130 L1440 220 Z" fill="#A81B33" opacity="0.75"></path>
  <path d="M0 220 L0 200 L160 158 L320 196 L470 150 L620 198 L760 150 L900 196 L1060 152 L1210 198 L1360 160 L1440 188 L1440 220 Z" fill="#831428"></path>
</svg>